<?xml version="1.0" encoding="UTF-8" standalone="no"?>
<svg
   width="1100"
   height="220"
   version="1.1"
   id="svg1"
   sodipodi:docname="disjoint-path-underlined.svg"
   inkscape:version="1.3 (0e150ed6c4, 2023-07-21)"
   xmlns:inkscape="http://www.inkscape.org/namespaces/inkscape"
   xmlns:sodipodi="http://sodipodi.sourceforge.net/DTD/sodipodi-0.dtd"
   xmlns="http://www.w3.org/2000/svg"
   xmlns:svg="http://www.w3.org/2000/svg">
  <defs
     id="defs1" />
  <sodipodi:namedview
     id="namedview1"
     pagecolor="#3b3b3b"
     bordercolor="#000000"
     borderopacity="0.25"
     inkscape:showpageshadow="2"
     inkscape:pageopacity="0.0"
     inkscape:pagecheckerboard="0"
     inkscape:deskcolor="#d1d1d1"
     showguides="false"
     inkscape:zoom="1.273125"
     inkscape:cx="339.32253"
     inkscape:cy="-1.9636721"
     inkscape:window-width="2880"
     inkscape:window-height="1514"
     inkscape:window-x="-11"
     inkscape:window-y="-11"
     inkscape:window-maximized="1"
     inkscape:current-layer="svg_3" />
  <g
     id="g1">
    <title
       id="title1">Layer 1</title>
    <g
       id="svg_3">
      <path
         style="font-style:italic;font-weight:300;font-size:123.183px;font-family:'Segoe UI';-inkscape-font-specification:'Segoe UI, Light Italic';fill:#ffffff;stroke:#999999;stroke-width:0"
         d="m 526.43755,105.59127 h 5.8945 l -18.22483,86.25216 h -5.8945 z m 28.08909,0 h 4.02992 l 36.87069,69.10999 q 1.98488,3.84947 2.58636,5.53362 h 0.24059 l 0.90222,-5.53362 14.61595,-69.10999 h 5.8945 l -18.34512,86.25216 h -3.30814 l -37.35187,-69.71147 -2.46607,-5.41332 h -0.24059 l -0.30074,1.86459 -15.57832,73.2602 h -5.7742 z m 68.32808,76.3879 q 3.96976,2.58636 9.32293,4.2705 5.35317,1.62399 11.00708,1.62399 9.68382,0 15.15728,-4.3908 5.53361,-4.45094 5.53361,-12.45062 0,-5.59376 -3.12769,-10.04471 -3.1277,-4.45095 -10.64619,-9.92441 -8.48086,-6.13509 -11.90929,-11.42811 -3.36829,-5.29302 -3.36829,-12.21003 0,-10.22515 7.81924,-16.72113 7.87938,-6.55613 19.54808,-6.55613 8.7816,0 17.50305,3.18784 l -1.26311,6.13509 q -6.97716,-3.90961 -16.84142,-3.90961 -9.26279,0 -14.91669,4.75168 -5.65391,4.69154 -5.65391,12.63107 0,6.0148 2.70666,10.16501 2.7668,4.09006 10.70633,9.92441 8.72146,6.31553 12.14989,11.36796 3.48858,4.99228 3.48858,11.90929 0,10.64619 -7.3982,16.84143 -7.3982,6.19524 -19.84882,6.19524 -5.83435,0 -11.36796,-1.44355 -5.53361,-1.38341 -9.68382,-3.60888 z m 80.23736,-76.3879 h 5.8945 l -18.22483,86.25216 h -5.8945 z m 76.02701,48.77999 h -21.83371 l 1.26311,-5.41332 h 27.78835 l -8.11997,38.31425 q -11.12737,6.07494 -24.48022,6.07494 -16.84142,0 -26.52524,-10.16501 -9.68382,-10.22515 -9.68382,-27.90864 0,-15.21743 6.07494,-26.82599 6.13509,-11.6687 17.26246,-17.98423 11.18752,-6.31554 25.44259,-6.31554 12.57092,0 24.8411,5.65391 l -1.44355,6.01479 q -6.73657,-3.54873 -12.39048,-4.87198 -5.65391,-1.3834 -12.27018,-1.3834 -12.27018,0 -21.77356,5.53361 -9.44323,5.53361 -14.5558,15.87906 -5.05243,10.28529 -5.05243,23.93888 0,15.51817 7.93953,24.23962 7.99968,8.72145 22.61563,8.72145 9.80411,0 18.46542,-3.66902 z m 37.53233,-48.77999 h 5.8945 l -8.36057,39.45706 h 49.38147 l 8.36056,-39.45706 h 5.95465 l -18.22483,86.25216 h -5.95464 l 8.7816,-41.38179 h -49.44162 l -8.72145,41.38179 h -5.8945 z m 99.605,5.47346 h -24.84111 l 1.08267,-5.47346 h 55.697 l -1.14281,5.47346 h -24.84111 l -17.14216,80.7787 h -5.8945 z"
         id="svg_6"
         transform="scale(1.0566007,0.94643132)"
         aria-label="INSIGHT" />
      <path
         d="M 18.66568,1.1424594 V 18.806459 h -3.48 v -7.176 h -7.896 v 7.176 h -3.48 V 1.1424594 h 3.48 v 7.128 h 7.896 v -7.128 z m 3.36,0 h 11.904 v 3.36 h -4.296 V 18.806459 h -3.48 V 4.5024594 h -4.128 z m 24.696011,4.272 q -1.008,-0.552 -2.064,-0.912 -1.032,-0.36 -1.944,-0.36 -1.128,0 -1.776,0.456 -0.648,0.456 -0.648,1.368 0,0.624 0.48,1.128 0.504,0.48 1.272,0.864 0.792,0.384 1.632,0.696 0.768,0.288 1.512,0.696 0.768,0.384 1.368,0.9839996 0.6,0.576 0.96,1.464 0.36,0.864 0.36,2.136 0,1.344 -0.696,2.496 -0.696,1.152 -2.04,1.872 -1.344,0.696 -3.312,0.696 -1.008,0 -2.064,-0.192 -1.032,-0.216 -2.04,-0.624 -1.008,-0.432 -1.944,-1.08 l 1.536,-2.712 q 0.624,0.456 1.344,0.816 0.744,0.336 1.488,0.528 0.744,0.192 1.368,0.192 0.624,0 1.248,-0.168 0.648,-0.192 1.056,-0.624 0.432,-0.432 0.432,-1.2 0,-0.528 -0.36,-0.96 -0.336,-0.432 -0.936,-0.792 -0.576,-0.36 -1.272,-0.624 -0.816,-0.312 -1.68,-0.72 -0.864,-0.408 -1.632,-0.9839996 -0.744,-0.6 -1.224,-1.464 -0.456,-0.888 -0.456,-2.16 0,-1.536 0.672,-2.664 0.696,-1.128 1.944,-1.776 1.248,-0.672 2.88,-0.744 2.136,0 3.456,0.504 1.344,0.504 2.4,1.2 z"
         id="svg_1"
         style="font-weight:bold;font-size:24px;font-family:'Josefin Sans';fill:#ffffff;stroke:#dddddd;stroke-width:0"
         transform="matrix(10.6201,0,0,9.50343,-15.7179,-0.00758008)"
         aria-label="HTS" />
      <rect
         style="fill:#0d6efd;fill-opacity:1;stroke-width:0.998097"
         id="rect1"
         width="984.3233"
         height="7.7757478"
         x="23.882645"
         y="194.94902" />
    </g>
  </g>
</svg>
